<svg width="33" height="21" viewBox="0 0 33 21" fill="none" xmlns="http://www.w3.org/2000/svg">
<path d="M0 5.66671V3.25004C0 1.91604 1.232 0.833374 2.75 0.833374H27.5C29.018 0.833374 30.25 1.91604 30.25 3.25004V5.66671H0ZM33 14.7292C33 17.7319 30.2294 20.1667 26.8125 20.1667C23.3956 20.1667 20.625 17.7319 20.625 14.7292C20.625 11.7265 23.3956 9.29171 26.8125 9.29171C30.2294 9.29171 33 11.7265 33 14.7292ZM30.0355 13.6635L29.0785 12.8225L26.169 15.4433L24.8064 14.3075L23.8494 15.1497L26.1704 17.1277L30.0355 13.6635ZM17.875 14.7292C17.875 16.8402 18.832 18.7542 20.3775 20.1667H2.75C1.232 20.1667 0 19.084 0 17.75V9.29171H20.3775C18.832 10.7042 17.875 12.6182 17.875 14.7292ZM11 15.3334H4.125V16.5417H11V15.3334ZM15.125 12.9167H4.125V14.125H15.125V12.9167Z" fill="white"/>
</svg>
