<svg width="28" height="27" viewBox="0 0 28 27" fill="none" xmlns="http://www.w3.org/2000/svg">
<path fill-rule="evenodd" clip-rule="evenodd" d="M0.25 23.8545H2.75V0.0211182H25.25V23.8545H27.75V26.0211H0.25V23.8545ZM9 20.6045V24.9378H12.75V20.6045H9ZM15.25 20.6045V24.9378H19V20.6045H15.25ZM7.75 15.1878H5.25V17.3545H7.75V15.1878ZM17.75 15.1878H15.25V17.3545H17.75V15.1878ZM12.75 15.1878H10.25V17.3545H12.75V15.1878ZM22.75 15.1878H20.25V17.3545H22.75V15.1878ZM7.75 10.8545H5.25V13.0211H7.75V10.8545ZM17.75 10.8545H15.25V13.0211H17.75V10.8545ZM12.75 10.8545H10.25V13.0211H12.75V10.8545ZM22.75 10.8545H20.25V13.0211H22.75V10.8545ZM7.75 6.52112H5.25V8.68779H7.75V6.52112ZM17.75 6.52112H15.25V8.68779H17.75V6.52112ZM12.75 6.52112H10.25V8.68779H12.75V6.52112ZM22.75 6.52112H20.25V8.68779H22.75V6.52112ZM7.75 2.18778H5.25V4.35445H7.75V2.18778ZM17.75 2.18778H15.25V4.35445H17.75V2.18778ZM12.75 2.18778H10.25V4.35445H12.75V2.18778ZM22.75 2.18778H20.25V4.35445H22.75V2.18778Z" fill="white"/>
</svg>
