<svg width="50" height="50" viewBox="0 0 50 50" fill="none" xmlns="http://www.w3.org/2000/svg">
<path d="M25 4.16667C36.4875 4.16667 45.8333 13.5125 45.8333 25C45.8333 36.4875 36.4875 45.8333 25 45.8333C13.5125 45.8333 4.16667 36.4875 4.16667 25C4.16667 13.5125 13.5125 4.16667 25 4.16667ZM25 0C11.1937 0 0 11.1937 0 25C0 38.8062 11.1937 50 25 50C38.8062 50 50 38.8062 50 25C50 11.1937 38.8062 0 25 0ZM20.8333 20.8333H16.6667V25H20.8333V37.5H27.0833V25H30.875L31.25 20.8333H27.0833V19.0979C27.0833 18.1021 27.2833 17.7083 28.2458 17.7083H31.25V12.5H26.2417C22.4958 12.5 20.8333 14.15 20.8333 17.3083V20.8333Z" fill="black" fill-opacity="0.7"/>
</svg>
