<svg width="48" height="46" viewBox="0 0 48 46" fill="none" xmlns="http://www.w3.org/2000/svg">
<ellipse cx="24.042" cy="23" rx="23.8525" ry="23" fill="#1D5884"/>
<path d="M24 13C29.514 13 34 17.486 34 23C34 28.514 29.514 33 24 33C18.486 33 14 28.514 14 23C14 17.486 18.486 13 24 13ZM24 11C17.373 11 12 16.373 12 23C12 29.627 17.373 35 24 35C30.627 35 36 29.627 36 23C36 16.373 30.627 11 24 11ZM22 21H20V23H22V29H25V23H26.82L27 21H25V20.167C25 19.689 25.096 19.5 25.558 19.5H27V17H24.596C22.798 17 22 17.792 22 19.308V21Z" fill="white"/>
</svg>
