<svg width="50" height="50" viewBox="0 0 50 50" fill="none" xmlns="http://www.w3.org/2000/svg">
<path d="M25 4.16667C36.4875 4.16667 45.8333 13.5125 45.8333 25C45.8333 36.4875 36.4875 45.8333 25 45.8333C13.5125 45.8333 4.16667 36.4875 4.16667 25C4.16667 13.5125 13.5125 4.16667 25 4.16667ZM25 0C11.1937 0 0 11.1937 0 25C0 38.8062 11.1937 50 25 50C38.8062 50 50 38.8062 50 25C50 11.1937 38.8062 0 25 0ZM19.7917 23.9583V26.4583H23.9271C23.7604 27.5292 22.675 29.6042 19.7917 29.6042C17.3042 29.6042 15.2708 27.5417 15.2708 25C15.2708 22.4583 17.3042 20.3958 19.7917 20.3958C21.2104 20.3958 22.1562 21 22.7 21.5229L24.6771 19.6146C23.4062 18.4271 21.7583 17.7083 19.7917 17.7083C15.7583 17.7083 12.5 20.9688 12.5 25C12.5 29.0312 15.7583 32.2917 19.7917 32.2917C24 32.2917 26.7896 29.3354 26.7896 25.1687C26.7896 24.6896 26.7396 24.325 26.675 23.9604H19.7917V23.9583ZM19.7917 23.9583L37.5 26.0417H34.375V29.1667H32.2917V26.0417H29.1667V23.9583H32.2917V20.8333H34.375V23.9583H37.5V26.0417L19.7917 23.9583Z" fill="black" fill-opacity="0.7"/>
</svg>
