<svg width="33" height="28" viewBox="0 0 33 28" fill="none" xmlns="http://www.w3.org/2000/svg">
<path d="M12.2079 0.887329C15.2509 0.887329 18.1866 1.92555 20.3692 3.77358C22.5518 5.62162 23.8025 8.1281 23.8462 10.7416C23.887 13.1825 22.8831 15.4262 21.1998 17.1545L21.6832 17.5638H23.0777L32.0303 25.1441L29.4205 27.4181L20.468 19.8379L20.448 18.6402L19.9645 18.2309C17.9768 19.7014 15.3794 20.5959 12.5374 20.5959C9.49447 20.5959 6.55877 19.5577 4.37616 17.7097C2.19355 15.8616 0.942831 13.3551 0.899134 10.7416C0.855437 8.1281 2.02235 5.62162 4.14316 3.77358C6.26397 1.92555 9.16495 0.887329 12.2079 0.887329ZM12.2586 3.91942C7.84572 3.91942 4.36609 6.95151 4.42946 10.7416C4.49283 14.5317 8.07384 17.5638 12.4867 17.5638C16.8997 17.5638 20.3793 14.5317 20.3159 10.7416C20.2525 6.95151 16.6715 3.91942 12.2586 3.91942Z" fill="white"/>
</svg>
