<svg width="49" height="46" viewBox="0 0 49 46" fill="none" xmlns="http://www.w3.org/2000/svg">
<ellipse cx="24.6416" cy="23" rx="23.8525" ry="23" fill="#1D5884"/>
<g clip-path="url(#clip0_184_184)">
<path d="M25 13.163C28.204 13.163 28.584 13.175 29.85 13.233C33.102 13.381 34.621 14.924 34.769 18.152C34.827 19.417 34.838 19.797 34.838 23.001C34.838 26.206 34.826 26.585 34.769 27.85C34.62 31.075 33.105 32.621 29.85 32.769C28.584 32.827 28.206 32.839 25 32.839C21.796 32.839 21.416 32.827 20.151 32.769C16.891 32.62 15.38 31.07 15.232 27.849C15.174 26.584 15.162 26.205 15.162 23C15.162 19.796 15.175 19.417 15.232 18.151C15.381 14.924 16.896 13.38 20.151 13.232C21.417 13.175 21.796 13.163 25 13.163ZM25 11C21.741 11 21.333 11.014 20.053 11.072C15.695 11.272 13.273 13.69 13.073 18.052C13.014 19.333 13 19.741 13 23C13 26.259 13.014 26.668 13.072 27.948C13.272 32.306 15.69 34.728 20.052 34.928C21.333 34.986 21.741 35 25 35C28.259 35 28.668 34.986 29.948 34.928C34.302 34.728 36.73 32.31 36.927 27.948C36.986 26.668 37 26.259 37 23C37 19.741 36.986 19.333 36.928 18.053C36.732 13.699 34.311 11.273 29.949 11.073C28.668 11.014 28.259 11 25 11V11ZM25 16.838C21.597 16.838 18.838 19.597 18.838 23C18.838 26.403 21.597 29.163 25 29.163C28.403 29.163 31.162 26.404 31.162 23C31.162 19.597 28.403 16.838 25 16.838ZM25 27C22.791 27 21 25.21 21 23C21 20.791 22.791 19 25 19C27.209 19 29 20.791 29 23C29 25.21 27.209 27 25 27ZM31.406 15.155C30.61 15.155 29.965 15.8 29.965 16.595C29.965 17.39 30.61 18.035 31.406 18.035C32.201 18.035 32.845 17.39 32.845 16.595C32.845 15.8 32.201 15.155 31.406 15.155Z" fill="white"/>
</g>
<defs>
<clipPath id="clip0_184_184">
<rect width="24" height="24" fill="white" transform="translate(13 11)"/>
</clipPath>
</defs>
</svg>
