<svg width="49" height="46" viewBox="0 0 49 46" fill="none" xmlns="http://www.w3.org/2000/svg">
<ellipse cx="24.7216" cy="23" rx="23.8525" ry="23" fill="#1D5884"/>
<path d="M25 13C30.514 13 35 17.486 35 23C35 28.514 30.514 33 25 33C19.486 33 15 28.514 15 23C15 17.486 19.486 13 25 13ZM25 11C18.373 11 13 16.373 13 23C13 29.627 18.373 35 25 35C31.627 35 37 29.627 37 23C37 16.373 31.627 11 25 11ZM29.5 28.311L27.74 24.914L26.708 25.419C25.588 25.962 23.308 21.509 24.403 20.922L25.445 20.409L23.698 17L22.645 17.52C19.044 19.397 24.762 30.511 28.445 28.828L29.5 28.311Z" fill="white"/>
</svg>
