<svg width="55" height="50" viewBox="0 0 55 50" fill="none" xmlns="http://www.w3.org/2000/svg">
<path d="M50.0867 21.4646C50.2838 22.6188 50.4167 23.7938 50.4167 25C50.4167 37.6563 39.1302 47.9167 25.2083 47.9167C11.2865 47.9167 0 37.6563 0 25C0 12.3438 11.2865 2.08337 25.2083 2.08337C30.5869 2.08337 35.5621 3.62712 39.655 6.23546L36.3963 9.27087C33.1696 7.36879 29.3333 6.25004 25.2083 6.25004C13.8371 6.25004 4.58333 14.6625 4.58333 25C4.58333 35.3375 13.8371 43.75 25.2083 43.75C36.4238 43.75 45.556 35.5667 45.8104 25.4271L50.0867 21.4646ZM47.905 4.51462L26.3542 24.5959L17.5473 17.0667L10.4546 23.5209L26.3542 37.5L55 10.9646L47.905 4.51462Z" fill="#1D5884"/>
</svg>
