<svg width="49" height="46" viewBox="0 0 49 46" fill="none" xmlns="http://www.w3.org/2000/svg">
<ellipse cx="24.3369" cy="23" rx="23.8525" ry="23" fill="#1D5884"/>
<path d="M24 13C29.514 13 34 17.486 34 23C34 28.514 29.514 33 24 33C18.486 33 14 28.514 14 23C14 17.486 18.486 13 24 13ZM24 11C17.373 11 12 16.373 12 23C12 29.627 17.373 35 24 35C30.627 35 36 29.627 36 23C36 16.373 30.627 11 24 11ZM30.5 19.778C30.059 19.974 29.584 20.106 29.086 20.166C29.595 19.861 29.984 19.379 30.169 18.804C29.693 19.086 29.166 19.291 28.605 19.401C28.157 18.922 27.516 18.623 26.809 18.623C25.219 18.623 24.051 20.106 24.41 21.646C22.365 21.543 20.55 20.563 19.336 19.074C18.691 20.18 19.002 21.628 20.098 22.361C19.695 22.348 19.316 22.237 18.984 22.053C18.957 23.193 19.775 24.26 20.959 24.498C20.613 24.592 20.233 24.614 19.847 24.54C20.16 25.518 21.071 26.229 22.147 26.249C21.11 27.061 19.807 27.424 18.5 27.27C19.59 27.969 20.883 28.376 22.273 28.376C26.845 28.376 29.427 24.515 29.271 21.052C29.753 20.706 30.17 20.272 30.5 19.778Z" fill="white"/>
</svg>
