<svg width="50" height="50" viewBox="0 0 50 50" fill="none" xmlns="http://www.w3.org/2000/svg">
<path d="M25 4.16667C36.4875 4.16667 45.8333 13.5125 45.8333 25C45.8333 36.4875 36.4875 45.8333 25 45.8333C13.5125 45.8333 4.16667 36.4875 4.16667 25C4.16667 13.5125 13.5125 4.16667 25 4.16667ZM25 0C11.1937 0 0 11.1937 0 25C0 38.8062 11.1937 50 25 50C38.8062 50 50 38.8062 50 25C50 11.1937 38.8062 0 25 0ZM38.5417 18.2875C37.6229 18.6958 36.6333 18.9708 35.5958 19.0958C36.6562 18.4604 37.4667 17.4562 37.8521 16.2583C36.8604 16.8458 35.7625 17.2729 34.5937 17.5021C33.6604 16.5042 32.325 15.8812 30.8521 15.8812C27.5396 15.8812 25.1062 18.9708 25.8542 22.1792C21.5937 21.9646 17.8125 19.9229 15.2833 16.8208C13.9396 19.125 14.5875 22.1417 16.8708 23.6687C16.0312 23.6417 15.2417 23.4104 14.55 23.0271C14.4937 25.4021 16.1979 27.625 18.6646 28.1208C17.9437 28.3167 17.1521 28.3625 16.3479 28.2083C17 30.2458 18.8979 31.7271 21.1396 31.7687C18.9792 33.4604 16.2646 34.2167 13.5417 33.8958C15.8125 35.3521 18.5062 36.2 21.4021 36.2C30.9271 36.2 36.3062 28.1562 35.9812 20.9417C36.9854 20.2208 37.8542 19.3167 38.5417 18.2875Z" fill="black" fill-opacity="0.7"/>
</svg>
