<svg width="49" height="46" viewBox="0 0 49 46" fill="none" xmlns="http://www.w3.org/2000/svg">
<ellipse cx="24.542" cy="23" rx="23.8525" ry="23" fill="#1D5884"/>
<path d="M13.0566 35L14.7436 28.837C13.7026 27.033 13.1556 24.988 13.1566 22.891C13.1596 16.335 18.4946 11 25.0496 11C28.2306 11.001 31.2166 12.24 33.4626 14.488C35.7076 16.736 36.9436 19.724 36.9426 22.902C36.9396 29.459 31.6046 34.794 25.0496 34.794C23.0596 34.793 21.0986 34.294 19.3616 33.346L13.0566 35ZM19.6536 31.193C21.3296 32.188 22.9296 32.784 25.0456 32.785C30.4936 32.785 34.9316 28.351 34.9346 22.9C34.9366 17.438 30.5196 13.01 25.0536 13.008C19.6016 13.008 15.1666 17.442 15.1646 22.892C15.1636 25.117 15.8156 26.783 16.9106 28.526L15.9116 32.174L19.6536 31.193ZM31.0406 25.729C30.9666 25.605 30.7686 25.531 30.4706 25.382C30.1736 25.233 28.7126 24.514 28.4396 24.415C28.1676 24.316 27.9696 24.266 27.7706 24.564C27.5726 24.861 27.0026 25.531 26.8296 25.729C26.6566 25.927 26.4826 25.952 26.1856 25.803C25.8886 25.654 24.9306 25.341 23.7956 24.328C22.9126 23.54 22.3156 22.567 22.1426 22.269C21.9696 21.972 22.1246 21.811 22.2726 21.663C22.4066 21.53 22.5696 21.316 22.7186 21.142C22.8696 20.97 22.9186 20.846 23.0186 20.647C23.1176 20.449 23.0686 20.275 22.9936 20.126C22.9186 19.978 22.3246 18.515 22.0776 17.92C21.8356 17.341 21.5906 17.419 21.4086 17.41L20.8386 17.4C20.6406 17.4 20.3186 17.474 20.0466 17.772C19.7746 18.07 19.0066 18.788 19.0066 20.251C19.0066 21.714 20.0716 23.127 20.2196 23.325C20.3686 23.523 22.3146 26.525 25.2956 27.812C26.0046 28.118 26.5586 28.301 26.9896 28.438C27.7016 28.664 28.3496 28.632 28.8616 28.556C29.4326 28.471 30.6196 27.837 30.8676 27.143C31.1156 26.448 31.1156 25.853 31.0406 25.729Z" fill="white"/>
</svg>
